<svg width="40" height="40" viewBox="0 0 40 40" fill="none" xmlns="http://www.w3.org/2000/svg">
<g clip-path="url(#clip0_17_38)">
<path d="M4.99994 32.8571C4.99994 33.6429 5.55931 34.2857 6.24994 34.2857H37.4999C38.8828 34.2857 39.9999 35.5625 39.9999 37.1429C39.9999 38.7232 38.8828 40 37.4999 40H6.24994C2.79838 40 -6.10352e-05 36.8036 -6.10352e-05 32.8571V2.85714C-6.10352e-05 1.27946 1.11947 0 2.49994 0C3.88041 0 4.99994 1.27946 4.99994 2.85714V32.8571ZM26.7656 22.0179C25.789 23.1339 24.2109 23.1339 23.2343 22.0179L18.7499 16.9018L11.7656 24.875C10.789 25.9911 9.21088 25.9911 8.23431 24.875C7.25619 23.7589 7.25619 21.9554 8.23431 20.8393L16.9843 10.8393C17.9609 9.72321 19.539 9.72321 20.5156 10.8393L24.9999 15.9554L33.2343 6.55357C34.2109 5.43571 35.789 5.43571 36.7656 6.55357C37.7421 7.66964 37.7421 9.47322 36.7656 10.5893L26.7656 22.0179Z" fill="#0496FF"/>
</g>
<defs>
<clipPath id="clip0_17_38">
<rect width="40" height="40" fill="white"/>
</clipPath>
</defs>
</svg>
