<svg width="26" height="26" viewBox="0 0 26 26" fill="none" xmlns="http://www.w3.org/2000/svg">
<g clip-path="url(#clip0_3_11)">
<path d="M20.5833 0H5.41667C2.42558 0 0 2.42558 0 5.41667V20.5833C0 23.5744 2.42558 26 5.41667 26H20.5833C23.5755 26 26 23.5744 26 20.5833V5.41667C26 2.42558 23.5755 0 20.5833 0ZM15.7452 21.2225C15.3064 21.307 15.1667 21.0373 15.1667 20.8065V18.4286C15.1667 17.6193 14.8828 17.0928 14.5708 16.8242C16.5013 16.6097 18.5293 15.8763 18.5293 12.5483C18.5293 11.6014 18.1913 10.8279 17.6378 10.2223C17.7266 10.0035 18.0234 9.12167 17.5522 7.92892C17.5522 7.92892 16.8253 7.696 15.171 8.81725C14.4777 8.62225 13.7367 8.528 13 8.52367C12.2633 8.52692 11.5223 8.62225 10.8301 8.81508C9.17475 7.69383 8.44675 7.92675 8.44675 7.92675C7.97658 9.12058 8.27342 10.0013 8.36333 10.2213C7.80867 10.8279 7.47067 11.6003 7.47067 12.5472C7.47067 15.8665 9.49325 16.6108 11.4194 16.8307C11.1713 17.0473 10.9471 17.4287 10.8691 17.9898C10.374 18.2108 9.12058 18.5933 8.34708 17.2683C8.34708 17.2683 7.88883 16.4363 7.01783 16.3746C7.01783 16.3746 6.17283 16.3638 6.95825 16.9022C6.95825 16.9022 7.527 17.1687 7.92133 18.1697C7.92133 18.1697 8.42292 19.7167 10.8333 19.1923V20.8054C10.8333 21.034 10.6936 21.3027 10.2613 21.2225C6.81633 20.0774 4.33333 16.8285 4.33333 13C4.33333 8.21275 8.21383 4.33333 13 4.33333C17.7862 4.33333 21.6667 8.21275 21.6667 13C21.6667 16.8274 19.1869 20.0753 15.7452 21.2225Z" fill="black"/>
</g>
<defs>
<clipPath id="clip0_3_11">
<rect width="26" height="26" fill="white"/>
</clipPath>
</defs>
</svg>
