<svg width="98" height="56" viewBox="0 0 98 56" fill="none" xmlns="http://www.w3.org/2000/svg">
<path d="M70.952 6.22223C59.3631 6.22223 49.952 15.6334 49.952 27.2223C49.952 32.0259 51.5698 36.4623 54.2874 40.0012C54.3471 40.0882 54.4239 40.1622 54.5131 40.2186C54.6023 40.275 54.702 40.3127 54.8063 40.3293C54.9105 40.3459 55.017 40.3411 55.1193 40.3152C55.2217 40.2894 55.3177 40.2429 55.4015 40.1787C55.4853 40.1146 55.5551 40.0341 55.6068 39.9421C55.6585 39.8501 55.6909 39.7484 55.7021 39.6434C55.7133 39.5385 55.703 39.4325 55.6718 39.3316C55.6407 39.2308 55.5893 39.1372 55.5209 39.0569C52.9115 35.6641 51.5002 31.5024 51.5076 27.2223C51.5076 16.4734 60.2031 7.77778 70.952 7.77778C78.9274 7.77778 85.7718 12.5736 88.774 19.432C88.8128 19.5287 88.8705 19.6167 88.9439 19.6906C89.0172 19.7646 89.1047 19.823 89.201 19.8625C89.2974 19.902 89.4007 19.9218 89.5049 19.9206C89.609 19.9194 89.7118 19.8973 89.8073 19.8557C89.9027 19.814 89.9888 19.7535 90.0605 19.6779C90.1321 19.6023 90.1879 19.513 90.2244 19.4155C90.2609 19.318 90.2775 19.2142 90.2731 19.1102C90.2687 19.0061 90.2435 18.9039 90.1989 18.8098C86.954 11.3991 79.5511 6.22223 70.952 6.22223V6.22223ZM90.5691 21.6845C90.4541 21.6903 90.3418 21.7216 90.2404 21.7762C90.139 21.8307 90.0509 21.9071 89.9826 21.9999C89.9143 22.0926 89.8674 22.1994 89.8454 22.3124C89.8233 22.4255 89.8267 22.542 89.8551 22.6536C90.2082 24.119 90.3965 25.6465 90.3965 27.2223C90.3965 37.9712 81.7009 46.6668 70.952 46.6668C66.1953 46.6754 61.602 44.9321 58.0487 41.7698C57.8944 41.6328 57.692 41.5627 57.4861 41.5749C57.2801 41.5872 57.0874 41.6808 56.9505 41.8351C56.8135 41.9894 56.7434 42.1918 56.7557 42.3977C56.7679 42.6037 56.8615 42.7964 57.0158 42.9334C60.855 46.3475 65.8159 48.23 70.9536 48.2223C82.5409 48.2223 91.9536 38.8112 91.9536 27.2223C91.9536 25.5237 91.7514 23.8715 91.3687 22.2879C91.3279 22.1092 91.2253 21.9508 91.079 21.8404C90.9327 21.7299 90.7522 21.6747 90.5691 21.6845V21.6845Z" fill="#0496FF"/>
<path d="M56.4294 12.4445C56.3244 12.4445 56.2206 12.4657 56.1241 12.5068C56.0276 12.548 55.9404 12.6083 55.8678 12.684C54.9153 13.675 54.0624 14.7572 53.3214 15.9149C53.2459 16.0326 53.2035 16.1683 53.1987 16.308C53.1938 16.4477 53.2267 16.5861 53.2939 16.7087C53.3611 16.8312 53.4601 16.9334 53.5804 17.0045C53.7008 17.0756 53.838 17.1131 53.9778 17.1127H67.8798C69.16 17.1127 70.2131 16.0565 70.2131 14.7794C70.2131 13.4992 69.16 12.4461 67.8798 12.4461H56.4309L56.4294 12.4445ZM74.1176 12.4445C72.8389 12.4445 71.7842 13.4992 71.7842 14.7779C71.7842 16.0565 72.8389 17.1112 74.1176 17.1112C75.3978 17.1112 76.4509 16.0565 76.4509 14.7779C76.4509 13.4992 75.3978 12.4445 74.1176 12.4445ZM56.7996 14.0001H67.8798C68.3247 14.0001 68.6576 14.333 68.6576 14.7779C68.6576 15.2228 68.3247 15.5557 67.8798 15.5557H55.5754C55.9751 15.0283 56.35 14.4839 56.7996 14.0001V14.0001ZM74.1176 14.0001C74.5625 14.0001 74.8954 14.333 74.8954 14.7779C74.8954 15.2228 74.5625 15.5557 74.1176 15.5557C74.0147 15.5582 73.9125 15.5397 73.8169 15.5015C73.7214 15.4634 73.6346 15.4062 73.5619 15.3335C73.4892 15.2608 73.432 15.174 73.3938 15.0785C73.3556 14.983 73.3372 14.8807 73.3398 14.7779C73.3398 14.333 73.6742 14.0001 74.1176 14.0001ZM78.7687 18.6668C77.49 18.6668 76.4354 19.7214 76.4354 21.0001C76.4354 22.2788 77.49 23.3334 78.7687 23.3334H85.7142C85.9205 23.3334 86.1184 23.2514 86.2642 23.1056C86.4101 22.9597 86.492 22.7619 86.492 22.5557C86.492 22.3494 86.4101 22.1514 86.2642 22.0056C86.1184 21.8597 85.9205 21.7779 85.7142 21.7779H78.7687C78.6658 21.7804 78.5636 21.7619 78.468 21.7238C78.3725 21.6856 78.2858 21.6285 78.213 21.5557C78.1403 21.483 78.0831 21.3962 78.0449 21.3007C78.0067 21.2052 77.9883 21.1029 77.9909 21.0001C77.9909 20.5552 78.3254 20.2223 78.7687 20.2223H89.3309C89.5372 20.2223 89.735 20.1403 89.8809 19.9945C90.0267 19.8486 90.1087 19.6508 90.1087 19.4445C90.1087 19.2383 90.0267 19.0403 89.8809 18.8944C89.735 18.7486 89.5372 18.6668 89.3309 18.6668H78.7687ZM50.7687 26.4445C50.6663 26.4445 50.5649 26.4647 50.4703 26.504C50.3758 26.5433 50.2899 26.6008 50.2176 26.6734C50.1454 26.7459 50.0881 26.8319 50.0492 26.9267C50.0103 27.0214 49.9905 27.123 49.9909 27.2254C49.9956 28.308 50.0842 29.3891 50.2554 30.4578C50.285 30.6405 50.3788 30.8067 50.5199 30.9265C50.661 31.0462 50.8403 31.1117 51.0254 31.1112H60.102C61.3822 31.1112 62.4354 30.0565 62.4354 28.7779C62.4354 27.4992 61.3822 26.4445 60.102 26.4445H50.7687ZM51.6102 28.0001H60.1036C60.5469 28.0001 60.8814 28.333 60.8814 28.7779C60.8814 29.2228 60.5469 29.5557 60.1036 29.5557H51.7347C51.6724 29.039 51.6308 28.5201 51.6102 28.0001V28.0001ZM74.0445 28.0001C73.4818 28.0013 72.9261 28.1242 72.4154 28.3605C71.9048 28.5968 71.4514 28.9408 71.0863 29.369C70.7213 29.7972 70.4532 30.2994 70.3006 30.841C70.148 31.3826 70.1145 31.9507 70.2022 32.5065C70.2352 32.7103 70.3479 32.8925 70.5153 33.0133C70.6828 33.1341 70.8913 33.1834 71.0951 33.1504C71.2989 33.1174 71.4813 33.0049 71.6021 32.8375C71.7228 32.67 71.7721 32.4614 71.7391 32.2576C71.7199 32.1356 71.7106 32.0124 71.7111 31.889C71.7111 30.5823 72.7378 29.5557 74.0445 29.5557H77.1011C77.3074 29.5557 77.5052 29.4737 77.6511 29.3278C77.797 29.1819 77.8789 28.9842 77.8789 28.7779C77.8789 28.5716 77.797 28.3736 77.6511 28.2278C77.5052 28.0819 77.3074 28.0001 77.1011 28.0001H74.0445V28.0001ZM82.5907 28.0001C82.3844 28.0001 82.1866 28.0819 82.0407 28.2278C81.8949 28.3736 81.8129 28.5716 81.8129 28.7779C81.8129 28.9842 81.8949 29.1819 82.0407 29.3278C82.1866 29.4737 82.3844 29.5557 82.5907 29.5557H90.16C89.9687 31.1517 89.628 32.7212 89.0509 34.2223H74.0445C73.8049 34.2223 73.5731 34.188 73.3585 34.1226C73.2605 34.0922 73.1574 34.0814 73.0553 34.0909C72.9531 34.1005 72.8539 34.1302 72.7632 34.1783C72.6726 34.2263 72.5923 34.2918 72.5271 34.371C72.4619 34.4502 72.413 34.5417 72.3832 34.6399C72.3535 34.7381 72.3435 34.8412 72.3537 34.9433C72.364 35.0454 72.3944 35.1443 72.4431 35.2346C72.4918 35.3249 72.5579 35.4047 72.6376 35.4693C72.7173 35.534 72.8089 35.5823 72.9074 35.6114C73.2682 35.7202 73.6525 35.7779 74.0445 35.7779H89.656C89.8092 35.7774 89.9589 35.7315 90.0862 35.6463C90.2135 35.5611 90.3128 35.4401 90.3716 35.2986C91.2256 33.2406 91.7451 31.0583 91.9116 28.8369C91.9195 28.7305 91.9054 28.6235 91.8701 28.5227C91.8349 28.4219 91.7793 28.3293 91.7068 28.2509C91.6342 28.1726 91.5463 28.1101 91.4486 28.0671C91.3508 28.0242 91.2452 28.002 91.1385 28.0016H82.5907V28.0001Z" fill="#0496FF"/>
<path d="M92.4 10.8889C90.538 10.9994 88.1549 11.5641 85.3284 12.5363C85.2046 12.5785 85.0933 12.6512 85.0051 12.7478C84.9168 12.8444 84.8543 12.9619 84.8234 13.089C84.7926 13.2162 84.7943 13.3491 84.8285 13.4755C84.8626 13.6018 84.9281 13.7175 85.0189 13.8118C85.4389 14.2504 85.8387 14.7062 86.2167 15.1807C86.3156 15.3062 86.4508 15.3981 86.6039 15.444C86.757 15.4899 86.9205 15.4877 87.0722 15.4374C87.9511 15.1418 88.7569 15.0843 89.3449 15.1698C89.9282 15.2554 90.2424 15.4903 90.3202 15.6132C90.4136 15.7797 90.4882 16.1825 90.3109 16.7565C90.1336 17.3321 89.7198 18.0538 88.9996 18.7912C85.5836 22.0858 79.5822 26.415 72.8529 30.4003C66.1018 34.395 59.3942 37.5823 54.8613 38.987C54.0338 39.2063 53.0569 39.2561 52.4316 39.1083C52.1173 39.0337 51.9073 38.9122 51.8171 38.822C51.7269 38.7318 51.6973 38.6961 51.7144 38.5001C51.7164 38.4779 51.7175 38.4554 51.7176 38.4331C51.7176 37.9182 52.1951 36.9429 53.0289 35.4978C53.0887 35.3941 53.1238 35.2778 53.1313 35.1583C53.1389 35.0388 53.1187 34.9192 53.0724 34.8087C52.8365 34.2495 52.6267 33.6795 52.444 33.1007C52.4046 32.9763 52.3346 32.8639 52.2404 32.7737C52.1462 32.6835 52.0308 32.6185 51.9048 32.5846C51.7789 32.5506 51.6464 32.549 51.5196 32.5796C51.3929 32.6103 51.2758 32.6723 51.1793 32.76C49.0311 34.7169 47.2982 36.1946 46.2156 37.6242C45.6727 38.3397 45.2853 39.06 45.1547 39.8424C45.024 40.6264 45.1889 41.4446 45.626 42.2006C46.3727 43.4949 47.7773 44.3318 49.6113 44.5495C51.4469 44.7673 53.7398 44.4314 56.5693 43.4607C61.7867 41.6765 68.2033 38.5933 74.5547 34.8351C80.8858 31.0862 86.6569 26.9562 90.7278 23.2509C92.9367 21.2442 94.78 19.138 95.8829 17.2231C96.4351 16.2664 96.81 15.3564 96.9158 14.4775C97.02 13.6297 96.7913 12.7758 96.2111 12.1489C95.8579 11.6322 95.3342 11.2561 94.7318 11.0865C94.0707 10.8889 93.3007 10.8376 92.4016 10.8889C92.4005 10.8889 92.3995 10.8889 92.3984 10.8889H92.4ZM92.4902 12.4413C93.2696 12.3978 93.8809 12.4569 94.2884 12.5782C94.696 12.6996 94.8733 12.8535 94.9667 13.0091C94.9994 13.0657 95.0391 13.1179 95.0849 13.1646C95.3415 13.4228 95.4411 13.7309 95.3727 14.2893C95.3058 14.8493 95.0211 15.6039 94.5342 16.447C93.562 18.1348 91.8073 20.1693 89.6824 22.1013C85.7298 25.6993 80.0224 29.792 73.766 33.4974C67.4878 37.2105 61.1318 40.2547 56.0638 41.9891C53.3789 42.9084 51.282 43.1839 49.7949 43.0065C48.3062 42.8292 47.4584 42.2629 46.9747 41.4229C46.6791 40.9142 46.6169 40.5301 46.6884 40.0992C46.7616 39.6683 47.0027 39.1658 47.4553 38.5685C48.202 37.5838 49.7451 36.2195 51.3862 34.7309C51.4329 34.8553 51.4733 34.9813 51.5231 35.1042C50.8138 36.3222 50.1884 37.3286 50.1776 38.402C50.1387 38.9775 50.344 39.5515 50.7142 39.9233C51.0938 40.3029 51.5713 40.5035 52.0722 40.6217C53.0756 40.8582 54.2251 40.7711 55.272 40.4911C55.2825 40.4861 55.2929 40.4809 55.3031 40.4755C60.0553 39.0071 66.808 35.7777 73.6431 31.7333C73.6447 31.7333 73.6462 31.7333 73.6478 31.7333C80.4549 27.7013 86.5153 23.352 90.0931 19.8971C90.0984 19.892 90.1036 19.8868 90.1087 19.8815C90.9798 18.9933 91.532 18.0724 91.798 17.206C92.0624 16.338 92.0624 15.4996 91.6704 14.8199C91.6674 14.8146 91.6643 14.8094 91.6611 14.8043C91.2333 14.0965 90.4509 13.7481 89.5704 13.6205C88.8611 13.5163 88.0149 13.6796 87.1609 13.8911C87.1142 13.8336 87.0613 13.7791 87.0116 13.72C89.1333 13.0667 91.1571 12.5114 92.4902 12.432V12.4413Z" fill="#0496FF"/>
<path fill-rule="evenodd" clip-rule="evenodd" d="M59.3009 40.8334C59.0946 40.8334 58.8968 40.9152 58.7509 41.0611C58.6051 41.207 58.5231 41.4049 58.5231 41.6112C58.5231 41.8175 58.6051 42.0153 58.7509 42.1611C58.8968 42.307 59.0946 42.389 59.3009 42.389H68.6342C68.8405 42.389 69.0384 42.307 69.1842 42.1611C69.3301 42.0153 69.412 41.8175 69.412 41.6112C69.412 41.4049 69.3301 41.207 69.1842 41.0611C69.0384 40.9152 68.8405 40.8334 68.6342 40.8334H59.3009ZM60.8565 43.9445C60.6502 43.9445 60.4524 44.0264 60.3065 44.1722C60.1606 44.3181 60.0787 44.516 60.0787 44.7223C60.0787 44.9286 60.1606 45.1264 60.3065 45.2722C60.4524 45.4181 60.6502 45.5001 60.8565 45.5001H70.1898C70.3961 45.5001 70.5939 45.4181 70.7398 45.2722C70.8856 45.1264 70.9676 44.9286 70.9676 44.7223C70.9676 44.516 70.8856 44.3181 70.7398 44.1722C70.5939 44.0264 70.3961 43.9445 70.1898 43.9445H60.8565Z" fill="#0496FF"/>
<path d="M73.3009 44.7239C73.3009 44.9301 73.219 45.1279 73.0731 45.2738C72.9273 45.4196 72.7294 45.5016 72.5231 45.5016C72.3169 45.5016 72.119 45.4196 71.9732 45.2738C71.8273 45.1279 71.7454 44.9301 71.7454 44.7239C71.7454 44.5176 71.8273 44.3196 71.9732 44.1738C72.119 44.0279 72.3169 43.9461 72.5231 43.9461C72.7294 43.9461 72.9273 44.0279 73.0731 44.1738C73.219 44.3196 73.3009 44.5176 73.3009 44.7239Z" fill="#0496FF"/>
<path fill-rule="evenodd" clip-rule="evenodd" d="M77.2022 37.7223C76.9959 37.7223 76.7981 37.8041 76.6522 37.95C76.5064 38.0959 76.4244 38.2938 76.4244 38.5001C76.4244 38.7064 76.5064 38.9041 76.6522 39.05C76.7981 39.1959 76.9959 39.2779 77.2022 39.2779H87.6524C87.8587 39.2779 88.0566 39.1959 88.2024 39.05C88.3483 38.9041 88.4302 38.7064 88.4302 38.5001C88.4302 38.2938 88.3483 38.0959 88.2024 37.95C88.0566 37.8041 87.8587 37.7223 87.6524 37.7223H77.2022Z" fill="#0496FF"/>
<path d="M74.8565 38.5016C74.8565 38.7079 74.7745 38.9057 74.6287 39.0515C74.4828 39.1974 74.285 39.2794 74.0787 39.2794C73.8724 39.2794 73.6746 39.1974 73.5287 39.0515C73.3828 38.9057 73.3009 38.7079 73.3009 38.5016C73.3009 38.2953 73.3828 38.0974 73.5287 37.9515C73.6746 37.8057 73.8724 37.7238 74.0787 37.7238C74.285 37.7238 74.4828 37.8057 74.6287 37.9515C74.7745 38.0974 74.8565 38.2953 74.8565 38.5016Z" fill="#0496FF"/>
<path fill-rule="evenodd" clip-rule="evenodd" d="M51.5138 23.7223C51.3075 23.7223 51.1097 23.8041 50.9638 23.95C50.818 24.0959 50.736 24.2938 50.736 24.5001C50.736 24.7064 50.818 24.9041 50.9638 25.05C51.1097 25.1959 51.3075 25.2779 51.5138 25.2779H60.0694C60.2756 25.2779 60.4735 25.1959 60.6193 25.05C60.7652 24.9041 60.8471 24.7064 60.8471 24.5001C60.8471 24.2938 60.7652 24.0959 60.6193 23.95C60.4735 23.8041 60.2756 23.7223 60.0694 23.7223H51.5138Z" fill="#0496FF"/>
<path d="M63.98 24.5016C63.98 24.7079 63.898 24.9057 63.7522 25.0515C63.6063 25.1974 63.4085 25.2794 63.2022 25.2794C62.9959 25.2794 62.7981 25.1974 62.6522 25.0515C62.5064 24.9057 62.4244 24.7079 62.4244 24.5016C62.4244 24.2953 62.5064 24.0974 62.6522 23.9515C62.7981 23.8057 62.9959 23.7238 63.2022 23.7238C63.4085 23.7238 63.6063 23.8057 63.7522 23.9515C63.898 24.0974 63.98 24.2953 63.98 24.5016Z" fill="#0496FF"/>
<path d="M13.0909 16.1875C12.9716 15.7727 12.804 15.4062 12.5881 15.0881C12.3722 14.7642 12.108 14.4915 11.7955 14.2699C11.4886 14.0426 11.1364 13.8693 10.7386 13.75C10.3466 13.6307 9.91193 13.571 9.43466 13.571C8.54261 13.571 7.75852 13.7926 7.08239 14.2358C6.41193 14.679 5.8892 15.3239 5.5142 16.1705C5.1392 17.0114 4.9517 18.0398 4.9517 19.2557C4.9517 20.4716 5.13636 21.5057 5.50568 22.358C5.875 23.2102 6.39773 23.8608 7.07386 24.3097C7.75 24.7528 8.5483 24.9744 9.46875 24.9744C10.304 24.9744 11.017 24.8267 11.608 24.5312C12.2045 24.2301 12.6591 23.8068 12.9716 23.2614C13.2898 22.7159 13.4489 22.071 13.4489 21.3267L14.1989 21.4375H9.69886V18.6591H17.0028V20.858C17.0028 22.392 16.679 23.7102 16.0312 24.8125C15.3835 25.9091 14.4915 26.7557 13.3551 27.3523C12.2188 27.9432 10.9176 28.2386 9.4517 28.2386C7.81534 28.2386 6.37784 27.8778 5.1392 27.1562C3.90057 26.429 2.93466 25.3977 2.24148 24.0625C1.55398 22.7216 1.21023 21.1307 1.21023 19.2898C1.21023 17.875 1.41477 16.6136 1.82386 15.5057C2.23864 14.392 2.81818 13.4489 3.5625 12.6761C4.30682 11.9034 5.1733 11.3153 6.16193 10.9119C7.15057 10.5085 8.22159 10.3068 9.375 10.3068C10.3636 10.3068 11.2841 10.4517 12.1364 10.7415C12.9886 11.0256 13.7443 11.429 14.4034 11.9517C15.0682 12.4744 15.6108 13.0966 16.0312 13.8182C16.4517 14.5341 16.7216 15.3239 16.8409 16.1875H13.0909ZM22.2396 28.2472C21.4044 28.2472 20.6601 28.1023 20.0067 27.8125C19.3533 27.517 18.8362 27.0824 18.4555 26.5085C18.0805 25.929 17.893 25.2074 17.893 24.3438C17.893 23.6165 18.0266 23.0057 18.2936 22.5114C18.5607 22.017 18.9243 21.6193 19.3845 21.3182C19.8447 21.017 20.3675 20.7898 20.9527 20.6364C21.5436 20.483 22.1629 20.375 22.8107 20.3125C23.572 20.233 24.1857 20.1591 24.6516 20.0909C25.1175 20.017 25.4555 19.9091 25.6658 19.767C25.876 19.625 25.9811 19.4148 25.9811 19.1364V19.0852C25.9811 18.5455 25.8107 18.1278 25.4697 17.8324C25.1345 17.5369 24.6572 17.3892 24.0379 17.3892C23.3845 17.3892 22.8646 17.5341 22.4783 17.8239C22.0919 18.108 21.8362 18.4659 21.7112 18.8977L18.3533 18.625C18.5237 17.8295 18.8589 17.142 19.3589 16.5625C19.8589 15.9773 20.5038 15.5284 21.2936 15.2159C22.0891 14.8977 23.0095 14.7386 24.055 14.7386C24.7822 14.7386 25.4783 14.8239 26.143 14.9943C26.8135 15.1648 27.4072 15.429 27.9243 15.7869C28.447 16.1449 28.8589 16.6051 29.1601 17.1676C29.4612 17.7244 29.6118 18.392 29.6118 19.1705V28H26.1686V26.1847H26.0663C25.8561 26.5938 25.5749 26.9545 25.2226 27.267C24.8703 27.5739 24.447 27.8153 23.9527 27.9915C23.4584 28.1619 22.8874 28.2472 22.2396 28.2472ZM23.2794 25.7415C23.8135 25.7415 24.2851 25.6364 24.6942 25.4261C25.1033 25.2102 25.4243 24.9205 25.6572 24.5568C25.8902 24.1932 26.0067 23.7812 26.0067 23.321V21.9318C25.893 22.0057 25.7368 22.0739 25.5379 22.1364C25.3447 22.1932 25.126 22.2472 24.8817 22.2983C24.6374 22.3437 24.393 22.3864 24.1487 22.4261C23.9044 22.4602 23.6828 22.4915 23.4839 22.5199C23.0578 22.5824 22.6857 22.6818 22.3675 22.8182C22.0493 22.9545 21.8021 23.1392 21.626 23.3722C21.4499 23.5994 21.3618 23.8835 21.3618 24.2244C21.3618 24.7188 21.5408 25.0966 21.8987 25.358C22.2624 25.6136 22.7226 25.7415 23.2794 25.7415ZM34.8592 10.5455V28H31.2286V10.5455H34.8592ZM40.3006 28.2472C39.4653 28.2472 38.721 28.1023 38.0676 27.8125C37.4142 27.517 36.8972 27.0824 36.5165 26.5085C36.1415 25.929 35.954 25.2074 35.954 24.3438C35.954 23.6165 36.0875 23.0057 36.3545 22.5114C36.6216 22.017 36.9852 21.6193 37.4455 21.3182C37.9057 21.017 38.4284 20.7898 39.0136 20.6364C39.6045 20.483 40.2239 20.375 40.8716 20.3125C41.633 20.233 42.2466 20.1591 42.7125 20.0909C43.1784 20.017 43.5165 19.9091 43.7267 19.767C43.9369 19.625 44.042 19.4148 44.042 19.1364V19.0852C44.042 18.5455 43.8716 18.1278 43.5307 17.8324C43.1955 17.5369 42.7182 17.3892 42.0989 17.3892C41.4455 17.3892 40.9256 17.5341 40.5392 17.8239C40.1528 18.108 39.8972 18.4659 39.7722 18.8977L36.4142 18.625C36.5847 17.8295 36.9199 17.142 37.4199 16.5625C37.9199 15.9773 38.5648 15.5284 39.3545 15.2159C40.15 14.8977 41.0705 14.7386 42.1159 14.7386C42.8432 14.7386 43.5392 14.8239 44.204 14.9943C44.8744 15.1648 45.4682 15.429 45.9852 15.7869C46.508 16.1449 46.9199 16.6051 47.221 17.1676C47.5222 17.7244 47.6727 18.392 47.6727 19.1705V28H44.2295V26.1847H44.1273C43.917 26.5938 43.6358 26.9545 43.2835 27.267C42.9313 27.5739 42.508 27.8153 42.0136 27.9915C41.5193 28.1619 40.9483 28.2472 40.3006 28.2472ZM41.3403 25.7415C41.8744 25.7415 42.346 25.6364 42.7551 25.4261C43.1642 25.2102 43.4852 24.9205 43.7182 24.5568C43.9511 24.1932 44.0676 23.7812 44.0676 23.321V21.9318C43.954 22.0057 43.7977 22.0739 43.5989 22.1364C43.4057 22.1932 43.1869 22.2472 42.9426 22.2983C42.6983 22.3437 42.454 22.3864 42.2097 22.4261C41.9653 22.4602 41.7438 22.4915 41.5449 22.5199C41.1188 22.5824 40.7466 22.6818 40.4284 22.8182C40.1102 22.9545 39.8631 23.1392 39.6869 23.3722C39.5108 23.5994 39.4227 23.8835 39.4227 24.2244C39.4227 24.7188 39.6017 25.0966 39.9597 25.358C40.3233 25.6136 40.7835 25.7415 41.3403 25.7415ZM52.3236 14.9091L54.727 19.4858L57.1901 14.9091H60.9145L57.1219 21.4545L61.0168 28H57.3094L54.727 23.4744L52.1872 28H48.4372L52.3236 21.4545L48.5736 14.9091H52.3236ZM64.1122 32.9091C63.652 32.9091 63.2202 32.8722 62.8168 32.7983C62.419 32.7301 62.0895 32.642 61.8281 32.5341L62.6463 29.8239C63.0724 29.9545 63.456 30.0256 63.7969 30.0369C64.1435 30.0483 64.4418 29.9688 64.6918 29.7983C64.9474 29.6278 65.1548 29.3381 65.3139 28.929L65.527 28.375L60.831 14.9091H64.6491L67.3594 24.5227H67.4957L70.2315 14.9091H74.0753L68.9872 29.4148C68.7429 30.1193 68.4105 30.733 67.9901 31.2557C67.5753 31.7841 67.0497 32.1903 66.4134 32.4744C65.777 32.7642 65.0099 32.9091 64.1122 32.9091Z" fill="white"/>
<path d="M8.23935 34.674C8.18821 34.1584 7.96875 33.7578 7.58097 33.4723C7.19318 33.1868 6.6669 33.044 6.00213 33.044C5.55043 33.044 5.16903 33.108 4.85795 33.2358C4.54688 33.3594 4.30824 33.532 4.14205 33.7536C3.98011 33.9751 3.89915 34.2266 3.89915 34.5078C3.89063 34.7422 3.93963 34.9467 4.04616 35.1214C4.15696 35.2962 4.30824 35.4474 4.5 35.5753C4.69176 35.6989 4.91335 35.8075 5.16477 35.9013C5.41619 35.9908 5.68466 36.0675 5.97017 36.1314L7.14631 36.4126C7.71733 36.5405 8.24148 36.7109 8.71875 36.924C9.19602 37.1371 9.60938 37.3991 9.95881 37.7102C10.3082 38.0213 10.5788 38.3878 10.7706 38.8097C10.9666 39.2315 11.0668 39.7152 11.071 40.2607C11.0668 41.0618 10.8622 41.7564 10.4574 42.3445C10.0568 42.9283 9.47727 43.3821 8.71875 43.706C7.96449 44.0256 7.05469 44.1854 5.98935 44.1854C4.93253 44.1854 4.01207 44.0234 3.22798 43.6996C2.44815 43.3757 1.83878 42.8963 1.39986 42.2614C0.965199 41.6222 0.737216 40.8317 0.715909 39.8899H3.39418C3.42401 40.3288 3.54972 40.6953 3.77131 40.9893C3.99716 41.2791 4.29759 41.4986 4.67259 41.6477C5.05185 41.7926 5.48011 41.8651 5.95739 41.8651C6.42614 41.8651 6.8331 41.7969 7.17827 41.6605C7.5277 41.5241 7.7983 41.3345 7.99006 41.0916C8.18182 40.8487 8.2777 40.5696 8.2777 40.2543C8.2777 39.9602 8.19034 39.7131 8.01562 39.5128C7.84517 39.3125 7.59375 39.142 7.26136 39.0014C6.93324 38.8608 6.53054 38.733 6.05327 38.6179L4.62784 38.2599C3.52415 37.9915 2.6527 37.5717 2.01349 37.0007C1.37429 36.4297 1.05682 35.6605 1.06108 34.6932C1.05682 33.9006 1.26776 33.2081 1.69389 32.6158C2.12429 32.0234 2.71449 31.5611 3.46449 31.2287C4.21449 30.8963 5.06676 30.7301 6.02131 30.7301C6.9929 30.7301 7.84091 30.8963 8.56534 31.2287C9.29403 31.5611 9.8608 32.0234 10.2656 32.6158C10.6705 33.2081 10.8793 33.8942 10.892 34.674H8.23935ZM17.3176 44.1918C16.3248 44.1918 15.4661 43.9808 14.7417 43.5589C14.0215 43.1328 13.4654 42.5405 13.0733 41.782C12.6813 41.0192 12.4853 40.1349 12.4853 39.1293C12.4853 38.1151 12.6813 37.2287 13.0733 36.4702C13.4654 35.7074 14.0215 35.1151 14.7417 34.6932C15.4661 34.267 16.3248 34.054 17.3176 34.054C18.3105 34.054 19.1671 34.267 19.8873 34.6932C20.6117 35.1151 21.1699 35.7074 21.562 36.4702C21.954 37.2287 22.15 38.1151 22.15 39.1293C22.15 40.1349 21.954 41.0192 21.562 41.782C21.1699 42.5405 20.6117 43.1328 19.8873 43.5589C19.1671 43.9808 18.3105 44.1918 17.3176 44.1918ZM17.3304 42.0824C17.7821 42.0824 18.1593 41.9545 18.4618 41.6989C18.7644 41.4389 18.9924 41.0852 19.1458 40.6378C19.3034 40.1903 19.3823 39.6811 19.3823 39.1101C19.3823 38.5391 19.3034 38.0298 19.1458 37.5824C18.9924 37.1349 18.7644 36.7812 18.4618 36.5213C18.1593 36.2614 17.7821 36.1314 17.3304 36.1314C16.8745 36.1314 16.4909 36.2614 16.1799 36.5213C15.873 36.7812 15.6408 37.1349 15.4831 37.5824C15.3297 38.0298 15.253 38.5391 15.253 39.1101C15.253 39.6811 15.3297 40.1903 15.4831 40.6378C15.6408 41.0852 15.873 41.4389 16.1799 41.6989C16.4909 41.9545 16.8745 42.0824 17.3304 42.0824ZM26.6436 30.9091V44H23.9206V30.9091H26.6436ZM31.6246 44.1854C30.9982 44.1854 30.44 44.0767 29.9499 43.8594C29.4599 43.6378 29.0721 43.3118 28.7866 42.8814C28.5053 42.4467 28.3647 41.9055 28.3647 41.2578C28.3647 40.7124 28.4648 40.2543 28.6651 39.8835C28.8654 39.5128 29.1381 39.2145 29.4833 38.9886C29.8285 38.7628 30.2205 38.5923 30.6594 38.4773C31.1026 38.3622 31.5671 38.2812 32.0529 38.2344C32.6239 38.1747 33.0842 38.1193 33.4336 38.0682C33.783 38.0128 34.0366 37.9318 34.1942 37.8253C34.3519 37.7187 34.4308 37.5611 34.4308 37.3523V37.3139C34.4308 36.9091 34.3029 36.5959 34.0472 36.3743C33.7958 36.1527 33.4379 36.0419 32.9734 36.0419C32.4833 36.0419 32.0934 36.1506 31.8036 36.3679C31.5138 36.581 31.3221 36.8494 31.2283 37.1733L28.7099 36.9688C28.8377 36.3722 29.0891 35.8565 29.4641 35.4219C29.8391 34.983 30.3228 34.6463 30.9151 34.4119C31.5117 34.1733 32.2021 34.054 32.9862 34.054C33.5316 34.054 34.0536 34.1179 34.5522 34.2457C35.055 34.3736 35.5004 34.5717 35.8881 34.8402C36.2802 35.1087 36.5891 35.4538 36.815 35.8757C37.0408 36.2933 37.1538 36.794 37.1538 37.3778V44H34.5714V42.6385H34.4947C34.337 42.9453 34.1261 43.2159 33.8619 43.4503C33.5977 43.6804 33.2802 43.8615 32.9094 43.9936C32.5387 44.1214 32.1104 44.1854 31.6246 44.1854ZM32.4045 42.3061C32.805 42.3061 33.1587 42.2273 33.4656 42.0696C33.7724 41.9077 34.0131 41.6903 34.1879 41.4176C34.3626 41.1449 34.4499 40.8359 34.4499 40.4908V39.4489C34.3647 39.5043 34.2475 39.5554 34.0984 39.6023C33.9535 39.6449 33.7894 39.6854 33.6062 39.7237C33.4229 39.7578 33.2397 39.7898 33.0565 39.8196C32.8732 39.8452 32.707 39.8686 32.5579 39.8899C32.2383 39.9368 31.9592 40.0114 31.7205 40.1136C31.4819 40.2159 31.2965 40.3544 31.1644 40.5291C31.0323 40.6996 30.9663 40.9126 30.9663 41.1683C30.9663 41.5391 31.1005 41.8224 31.369 42.0185C31.6417 42.2102 31.9869 42.3061 32.4045 42.3061ZM39.2663 44V34.1818H41.9062V35.8949H42.0085C42.1875 35.2855 42.4879 34.8253 42.9098 34.5142C43.3317 34.1989 43.8175 34.0412 44.3672 34.0412C44.5036 34.0412 44.6506 34.0497 44.8082 34.0668C44.9659 34.0838 45.1044 34.1072 45.2237 34.1371V36.5533C45.0959 36.5149 44.919 36.4808 44.6932 36.451C44.4673 36.4212 44.2607 36.4062 44.0732 36.4062C43.6726 36.4062 43.3146 36.4936 42.9993 36.6683C42.6882 36.8388 42.4411 37.0774 42.2578 37.3842C42.0788 37.6911 41.9893 38.0447 41.9893 38.4453V44H39.2663Z" fill="#0496FF"/>
</svg>
