<svg width="40" height="40" viewBox="0 0 40 40" fill="none" xmlns="http://www.w3.org/2000/svg">
<g clip-path="url(#clip0_16_34)">
<path d="M36.6667 0C38.5104 0 40 1.11953 40 2.5C40 3.88047 38.5104 5 36.6667 5V5.85781C36.6667 9.17188 34.9062 12.3516 31.7812 14.6953L24.7187 20L31.7812 25.3047C34.9062 27.6484 36.6667 30.8281 36.6667 34.1406V35C38.5104 35 40 36.1172 40 37.5C40 38.8828 38.5104 40 36.6667 40H3.33333C1.49271 40 0 38.8828 0 37.5C0 36.1172 1.49271 35 3.33333 35V34.1406C3.33333 30.8281 5.08958 27.6484 8.21458 25.3047L15.2812 20L8.21458 14.6953C5.08958 12.3516 3.33333 9.17188 3.33333 5.85781V5C1.49271 5 0 3.88047 0 2.5C0 1.11953 1.49271 0 3.33333 0H36.6667ZM11.5729 10H28.3333C29.4167 8.78125 30 7.34219 30 5.85781V5H10V5.85781C10 7.34219 10.5833 8.78125 11.5729 10ZM11.5729 30H28.3333C27.9687 29.5859 27.5521 29.1953 27.0729 28.8359L20 23.5391L12.9271 28.8359C12.4479 29.1953 12.0312 29.5859 11.5729 30Z" fill="#0496FF"/>
</g>
<defs>
<clipPath id="clip0_16_34">
<rect width="40" height="40" fill="white"/>
</clipPath>
</defs>
</svg>
