<svg width="89" height="36" viewBox="0 0 89 36" fill="none" xmlns="http://www.w3.org/2000/svg">
<path d="M5.72 24.162L1.254 19.3L5.72 14.438H10.45L5.962 19.3L10.45 24.162H5.72Z" fill="#391E86"/>
<path d="M28.862 8.556L23.384 24H18.676L13.198 8.556H17.202L21.03 20.216L24.88 8.556H28.862ZM31.9963 10.448C31.3363 10.448 30.7936 10.2573 30.3683 9.876C29.9576 9.48 29.7523 8.996 29.7523 8.424C29.7523 7.83733 29.9576 7.35333 30.3683 6.972C30.7936 6.576 31.3363 6.378 31.9963 6.378C32.6416 6.378 33.1696 6.576 33.5803 6.972C34.0056 7.35333 34.2183 7.83733 34.2183 8.424C34.2183 8.996 34.0056 9.48 33.5803 9.876C33.1696 10.2573 32.6416 10.448 31.9963 10.448ZM33.8663 11.724V24H30.1043V11.724H33.8663ZM43.1046 20.81V24H41.1906C39.8266 24 38.7633 23.67 38.0006 23.01C37.2379 22.3353 36.8566 21.2427 36.8566 19.732V14.848H35.3606V11.724H36.8566V8.732H40.6186V11.724H43.0826V14.848H40.6186V19.776C40.6186 20.1427 40.7066 20.4067 40.8826 20.568C41.0586 20.7293 41.3519 20.81 41.7626 20.81H43.1046ZM50.4581 24.176C49.2554 24.176 48.1701 23.9193 47.2021 23.406C46.2488 22.8927 45.4934 22.1593 44.9361 21.206C44.3934 20.2527 44.1221 19.138 44.1221 17.862C44.1221 16.6007 44.4008 15.4933 44.9581 14.54C45.5154 13.572 46.2781 12.8313 47.2461 12.318C48.2141 11.8047 49.2994 11.548 50.5021 11.548C51.7048 11.548 52.7901 11.8047 53.7581 12.318C54.7261 12.8313 55.4888 13.572 56.0461 14.54C56.6034 15.4933 56.8821 16.6007 56.8821 17.862C56.8821 19.1233 56.5961 20.238 56.0241 21.206C55.4668 22.1593 54.6968 22.8927 53.7141 23.406C52.7461 23.9193 51.6608 24.176 50.4581 24.176ZM50.4581 20.92C51.1768 20.92 51.7854 20.656 52.2841 20.128C52.7974 19.6 53.0541 18.8447 53.0541 17.862C53.0541 16.8793 52.8048 16.124 52.3061 15.596C51.8221 15.068 51.2208 14.804 50.5021 14.804C49.7688 14.804 49.1601 15.068 48.6761 15.596C48.1921 16.1093 47.9501 16.8647 47.9501 17.862C47.9501 18.8447 48.1848 19.6 48.6541 20.128C49.1381 20.656 49.7394 20.92 50.4581 20.92ZM62.3099 13.77C62.7499 13.0953 63.2999 12.5673 63.9599 12.186C64.6199 11.79 65.3532 11.592 66.1599 11.592V15.574H65.1259C64.1872 15.574 63.4832 15.7793 63.0139 16.19C62.5446 16.586 62.3099 17.29 62.3099 18.302V24H58.5479V11.724H62.3099V13.77Z" fill="#111111"/>
<path d="M76.746 6.1L70.85 31.114H67.22L73.116 6.1H76.746ZM78.0248 14.438H82.7548L87.2208 19.3L82.7548 24.162H78.0248L82.5128 19.3L78.0248 14.438Z" fill="#391E86"/>
</svg>
