<svg width="35" height="33" viewBox="0 0 35 33" fill="none" xmlns="http://www.w3.org/2000/svg">
<path d="M27.3437 -1.99998C28.5536 -1.99998 29.5312 -1.02041 29.5312 0.1875V1.43301C30.3857 1.59023 31.2197 1.86709 32.0058 2.25879L32.6962 2.60605C33.7763 3.14609 34.2138 4.45996 33.6738 5.54004C33.1337 6.62012 31.8212 7.05762 30.7412 6.51758L30.0439 6.16895C29.3671 5.83398 28.622 5.65625 27.8632 5.65625H27.747C25.7099 5.65625 24.0624 7.30371 24.0624 9.34082C24.0624 10.8447 24.9785 12.1982 26.3798 12.7588L29.9345 14.1807C32.997 15.4043 34.9999 18.3643 34.9999 21.6592V21.8916C34.9999 25.3916 32.7031 28.3584 29.5312 29.3564V30.8125C29.5312 32.0225 28.5536 33 27.3437 33C26.1337 33 25.1562 32.0225 25.1562 30.8125V29.4863C24.0693 29.2471 23.1464 28.8232 22.2646 28.2354L20.6581 27.1621C19.6533 26.4922 19.3867 25.0771 20.0566 24.127C20.7265 23.1221 22.08 22.8555 23.0917 23.5254L24.6913 24.5918C25.4228 25.084 26.291 25.3438 27.1728 25.3438C29.08 25.3438 30.6249 23.7988 30.6249 21.8916V21.6592C30.6249 20.1553 29.7089 18.8018 28.3076 18.2412L24.7529 16.8193C21.6904 15.5957 19.6874 12.6357 19.6874 9.34082C19.6874 5.79297 21.9775 2.78447 25.1562 1.70576V0.1875C25.1562 -1.02041 26.1337 -2 27.3437 -2V-1.99998ZM-4.05273e-05 2.375C-4.05273e-05 1.16709 0.979529 0.1875 2.18744 0.1875H7.65619C13.0908 0.1875 17.4999 4.59463 17.4999 10.0312C17.4999 14.0508 15.0937 17.5029 11.6415 19.0342L15.1552 27.8115C15.6064 28.9326 15.0595 30.2041 13.9384 30.6553C12.8173 31.1064 11.5458 30.5596 11.0947 29.4385L7.26654 19.875H4.37494V28.625C4.37494 29.835 3.39535 30.8125 2.18744 30.8125C0.979529 30.8125 -6.10352e-05 29.835 -6.10352e-05 28.625L-4.05273e-05 2.375ZM4.37494 15.5H7.65619C10.6777 15.5 13.1249 13.0527 13.1249 10.0312C13.1249 7.00977 10.6777 4.5625 7.65619 4.5625H4.37494V15.5Z" fill="#0496FF"/>
</svg>
